<svg xmlns="http://www.w3.org/2000/svg" xmlns:xlink="http://www.w3.org/1999/xlink" width="1080" zoomAndPan="magnify" viewBox="0 0 810 809.999993" height="1080" preserveAspectRatio="xMidYMid meet" version="1.0"><defs><clipPath id="64dbd21a5d"><path d="M 16.828125 19.679688 L 790.078125 19.679688 L 790.078125 792.929688 L 16.828125 792.929688 Z M 16.828125 19.679688 " clip-rule="nonzero"/></clipPath></defs><g clip-path="url(#64dbd21a5d)"><path fill="#ff5757" d="M 403.570312 19.679688 C 397.242188 19.679688 390.914062 19.835938 384.59375 20.144531 C 378.269531 20.457031 371.960938 20.921875 365.664062 21.542969 C 359.363281 22.164062 353.082031 22.9375 346.824219 23.867188 C 340.5625 24.792969 334.328125 25.875 328.121094 27.109375 C 321.914062 28.34375 315.738281 29.730469 309.597656 31.269531 C 303.460938 32.808594 297.359375 34.496094 291.304688 36.332031 C 285.246094 38.167969 279.238281 40.15625 273.28125 42.285156 C 267.320312 44.417969 261.417969 46.695312 255.570312 49.117188 C 249.722656 51.539062 243.9375 54.105469 238.214844 56.8125 C 232.496094 59.515625 226.84375 62.363281 221.261719 65.34375 C 215.679688 68.328125 210.171875 71.449219 204.746094 74.703125 C 199.316406 77.957031 193.96875 81.339844 188.707031 84.855469 C 183.445312 88.375 178.269531 92.015625 173.1875 95.789062 C 168.105469 99.558594 163.117188 103.449219 158.222656 107.464844 C 153.332031 111.480469 148.539062 115.613281 143.847656 119.863281 C 139.160156 124.117188 134.578125 128.476562 130.101562 132.953125 C 125.625 137.429688 121.261719 142.011719 117.011719 146.703125 C 112.761719 151.390625 108.628906 156.183594 104.613281 161.074219 C 100.597656 165.96875 96.707031 170.957031 92.933594 176.039062 C 89.164062 181.125 85.523438 186.296875 82.003906 191.558594 C 78.488281 196.820312 75.105469 202.167969 71.851562 207.597656 C 68.597656 213.023438 65.476562 218.53125 62.492188 224.113281 C 59.511719 229.695312 56.664062 235.347656 53.957031 241.066406 C 51.253906 246.789062 48.6875 252.574219 46.265625 258.421875 C 43.84375 264.269531 41.566406 270.171875 39.433594 276.132812 C 37.300781 282.089844 35.316406 288.101562 33.480469 294.15625 C 31.644531 300.214844 29.957031 306.3125 28.417969 312.449219 C 26.878906 318.589844 25.492188 324.765625 24.257812 330.972656 C 23.023438 337.179688 21.941406 343.414062 21.011719 349.675781 C 20.085938 355.9375 19.308594 362.214844 18.691406 368.515625 C 18.070312 374.8125 17.605469 381.125 17.292969 387.445312 C 16.984375 393.765625 16.828125 400.09375 16.828125 406.421875 C 16.828125 412.75 16.984375 419.078125 17.292969 425.398438 C 17.605469 431.71875 18.070312 438.03125 18.691406 444.328125 C 19.308594 450.628906 20.085938 456.90625 21.011719 463.167969 C 21.941406 469.429688 23.023438 475.664062 24.257812 481.871094 C 25.492188 488.078125 26.878906 494.253906 28.417969 500.390625 C 29.957031 506.53125 31.644531 512.628906 33.480469 518.6875 C 35.316406 524.742188 37.300781 530.75 39.433594 536.710938 C 41.566406 542.671875 43.84375 548.574219 46.265625 554.421875 C 48.6875 560.269531 51.253906 566.054688 53.957031 571.773438 C 56.664062 577.496094 59.511719 583.148438 62.492188 588.730469 C 65.476562 594.3125 68.597656 599.816406 71.851562 605.246094 C 75.105469 610.675781 78.488281 616.023438 82.003906 621.285156 C 85.523438 626.546875 89.164062 631.71875 92.933594 636.804688 C 96.707031 641.886719 100.597656 646.875 104.613281 651.769531 C 108.628906 656.660156 112.761719 661.453125 117.011719 666.140625 C 121.261719 670.832031 125.625 675.414062 130.101562 679.890625 C 134.578125 684.363281 139.160156 688.726562 143.847656 692.980469 C 148.539062 697.230469 153.332031 701.363281 158.222656 705.378906 C 163.117188 709.394531 168.105469 713.285156 173.1875 717.054688 C 178.269531 720.828125 183.445312 724.46875 188.707031 727.984375 C 193.96875 731.503906 199.316406 734.886719 204.746094 738.140625 C 210.171875 741.394531 215.679688 744.515625 221.261719 747.496094 C 226.84375 750.480469 232.496094 753.328125 238.214844 756.03125 C 243.9375 758.738281 249.722656 761.300781 255.570312 763.726562 C 261.417969 766.148438 267.320312 768.425781 273.28125 770.554688 C 279.238281 772.6875 285.246094 774.671875 291.304688 776.511719 C 297.359375 778.347656 303.460938 780.035156 309.597656 781.574219 C 315.738281 783.113281 321.914062 784.496094 328.121094 785.734375 C 334.328125 786.96875 340.5625 788.050781 346.824219 788.976562 C 353.082031 789.90625 359.363281 790.679688 365.664062 791.300781 C 371.960938 791.921875 378.269531 792.386719 384.59375 792.699219 C 390.914062 793.007812 397.242188 793.164062 403.570312 793.164062 C 409.898438 793.164062 416.222656 793.007812 422.546875 792.699219 C 428.867188 792.386719 435.179688 791.921875 441.476562 791.300781 C 447.777344 790.679688 454.054688 789.90625 460.316406 788.976562 C 466.578125 788.050781 472.8125 786.96875 479.019531 785.734375 C 485.226562 784.496094 491.402344 783.113281 497.539062 781.574219 C 503.679688 780.035156 509.777344 778.347656 515.835938 776.511719 C 521.890625 774.671875 527.898438 772.6875 533.859375 770.554688 C 539.820312 768.425781 545.722656 766.148438 551.570312 763.726562 C 557.417969 761.300781 563.203125 758.738281 568.921875 756.03125 C 574.644531 753.328125 580.296875 750.480469 585.878906 747.496094 C 591.460938 744.515625 596.964844 741.394531 602.394531 738.140625 C 607.824219 734.886719 613.167969 731.503906 618.433594 727.984375 C 623.695312 724.46875 628.867188 720.828125 633.953125 717.054688 C 639.035156 713.285156 644.023438 709.394531 648.917969 705.378906 C 653.808594 701.363281 658.601562 697.230469 663.289062 692.980469 C 667.980469 688.726562 672.5625 684.363281 677.039062 679.890625 C 681.511719 675.414062 685.875 670.832031 690.125 666.140625 C 694.378906 661.453125 698.511719 656.660156 702.523438 651.769531 C 706.539062 646.875 710.433594 641.886719 714.203125 636.804688 C 717.972656 631.71875 721.617188 626.546875 725.132812 621.285156 C 728.648438 616.023438 732.035156 610.675781 735.289062 605.246094 C 738.542969 599.816406 741.660156 594.3125 744.644531 588.730469 C 747.628906 583.148438 750.472656 577.496094 753.179688 571.773438 C 755.886719 566.054688 758.449219 560.269531 760.871094 554.421875 C 763.292969 548.574219 765.570312 542.671875 767.703125 536.710938 C 769.835938 530.75 771.820312 524.742188 773.660156 518.6875 C 775.496094 512.628906 777.183594 506.53125 778.722656 500.390625 C 780.257812 494.253906 781.644531 488.078125 782.878906 481.871094 C 784.117188 475.664062 785.195312 469.429688 786.125 463.167969 C 787.054688 456.90625 787.828125 450.628906 788.449219 444.328125 C 789.070312 438.03125 789.535156 431.71875 789.847656 425.398438 C 790.15625 419.078125 790.3125 412.75 790.3125 406.421875 C 790.308594 400.09375 790.152344 393.769531 789.835938 387.449219 C 789.523438 381.128906 789.054688 374.816406 788.433594 368.519531 C 787.808594 362.222656 787.03125 355.945312 786.101562 349.683594 C 785.171875 343.425781 784.085938 337.191406 782.851562 330.984375 C 781.613281 324.777344 780.226562 318.605469 778.683594 312.46875 C 777.144531 306.328125 775.457031 300.234375 773.617188 294.175781 C 771.777344 288.121094 769.792969 282.113281 767.660156 276.15625 C 765.523438 270.199219 763.246094 264.296875 760.824219 258.449219 C 758.398438 252.605469 755.835938 246.820312 753.128906 241.101562 C 750.421875 235.382812 747.574219 229.730469 744.589844 224.148438 C 741.605469 218.570312 738.488281 213.066406 735.234375 207.636719 C 731.980469 202.210938 728.59375 196.863281 725.078125 191.601562 C 721.558594 186.34375 717.917969 181.167969 714.144531 176.085938 C 710.375 171.003906 706.484375 166.015625 702.46875 161.125 C 698.453125 156.234375 694.320312 151.441406 690.070312 146.753906 C 685.820312 142.066406 681.457031 137.484375 676.984375 133.007812 C 672.507812 128.535156 667.925781 124.171875 663.238281 119.921875 C 658.546875 115.671875 653.757812 111.539062 648.867188 107.523438 C 643.972656 103.507812 638.988281 99.617188 633.90625 95.84375 C 628.820312 92.074219 623.648438 88.429688 618.386719 84.914062 C 613.125 81.398438 607.78125 78.011719 602.355469 74.757812 C 596.925781 71.503906 591.421875 68.386719 585.84375 65.402344 C 580.261719 62.417969 574.609375 59.570312 568.890625 56.863281 C 563.171875 54.15625 557.386719 51.589844 551.539062 49.167969 C 545.695312 46.746094 539.792969 44.46875 533.835938 42.332031 C 527.875 40.199219 521.871094 38.214844 515.8125 36.375 C 509.757812 34.535156 503.660156 32.847656 497.523438 31.304688 C 491.386719 29.765625 485.210938 28.378906 479.007812 27.140625 C 472.800781 25.90625 466.566406 24.820312 460.308594 23.890625 C 454.046875 22.957031 447.769531 22.183594 441.472656 21.558594 C 435.171875 20.9375 428.863281 20.46875 422.542969 20.152344 C 416.222656 19.839844 409.898438 19.683594 403.570312 19.679688 Z M 403.570312 739.820312 C 398.113281 739.820312 392.660156 739.6875 387.210938 739.417969 C 381.761719 739.152344 376.320312 738.75 370.890625 738.214844 C 365.460938 737.679688 360.046875 737.011719 354.648438 736.210938 C 349.253906 735.410156 343.878906 734.476562 338.527344 733.414062 C 333.175781 732.347656 327.851562 731.15625 322.558594 729.828125 C 317.269531 728.503906 312.011719 727.046875 306.789062 725.464844 C 301.566406 723.878906 296.386719 722.167969 291.25 720.332031 C 286.113281 718.492188 281.023438 716.53125 275.984375 714.441406 C 270.941406 712.355469 265.957031 710.144531 261.023438 707.808594 C 256.089844 705.476562 251.21875 703.023438 246.40625 700.453125 C 241.59375 697.878906 236.847656 695.191406 232.167969 692.386719 C 227.488281 689.582031 222.878906 686.664062 218.34375 683.632812 C 213.804688 680.601562 209.347656 677.460938 204.964844 674.210938 C 200.582031 670.960938 196.28125 667.605469 192.0625 664.140625 C 187.847656 660.679688 183.714844 657.117188 179.671875 653.453125 C 175.628906 649.789062 171.679688 646.027344 167.820312 642.171875 C 163.964844 638.3125 160.203125 634.359375 156.539062 630.320312 C 152.875 626.277344 149.3125 622.144531 145.847656 617.925781 C 142.386719 613.710938 139.03125 609.410156 135.78125 605.027344 C 132.53125 600.644531 129.390625 596.183594 126.359375 591.648438 C 123.328125 587.109375 120.410156 582.503906 117.605469 577.824219 C 114.800781 573.144531 112.109375 568.398438 109.539062 563.585938 C 106.964844 558.773438 104.515625 553.898438 102.179688 548.96875 C 99.847656 544.035156 97.636719 539.046875 95.550781 534.007812 C 93.460938 528.964844 91.5 523.878906 89.660156 518.742188 C 87.820312 513.601562 86.109375 508.421875 84.527344 503.203125 C 82.941406 497.980469 81.488281 492.722656 80.164062 487.429688 C 78.835938 482.136719 77.640625 476.816406 76.578125 471.464844 C 75.511719 466.113281 74.582031 460.738281 73.78125 455.339844 C 72.980469 449.945312 72.3125 444.53125 71.777344 439.101562 C 71.242188 433.671875 70.839844 428.230469 70.574219 422.78125 C 70.304688 417.332031 70.171875 411.878906 70.171875 406.421875 C 70.171875 400.964844 70.304688 395.511719 70.574219 390.0625 C 70.839844 384.613281 71.242188 379.171875 71.777344 373.742188 C 72.3125 368.3125 72.980469 362.898438 73.78125 357.503906 C 74.582031 352.105469 75.511719 346.730469 76.578125 341.378906 C 77.640625 336.027344 78.835938 330.707031 80.164062 325.414062 C 81.488281 320.121094 82.941406 314.863281 84.527344 309.640625 C 86.109375 304.417969 87.820312 299.242188 89.660156 294.101562 C 91.5 288.964844 93.460938 283.875 95.550781 278.835938 C 97.636719 273.792969 99.847656 268.808594 102.179688 263.875 C 104.515625 258.941406 106.964844 254.070312 109.539062 249.257812 C 112.109375 244.445312 114.800781 239.699219 117.605469 235.019531 C 120.410156 230.339844 123.328125 225.730469 126.359375 221.195312 C 129.390625 216.660156 132.53125 212.199219 135.78125 207.816406 C 139.03125 203.433594 142.386719 199.132812 145.847656 194.917969 C 149.3125 190.699219 152.875 186.566406 156.539062 182.523438 C 160.203125 178.480469 163.964844 174.53125 167.820312 170.671875 C 171.679688 166.816406 175.628906 163.054688 179.671875 159.390625 C 183.714844 155.726562 187.847656 152.164062 192.0625 148.703125 C 196.28125 145.238281 200.582031 141.882812 204.964844 138.632812 C 209.347656 135.382812 213.804688 132.242188 218.34375 129.210938 C 222.878906 126.179688 227.488281 123.261719 232.167969 120.457031 C 236.847656 117.652344 241.59375 114.960938 246.40625 112.390625 C 251.21875 109.820312 256.089844 107.367188 261.023438 105.03125 C 265.957031 102.699219 270.941406 100.488281 275.984375 98.402344 C 281.023438 96.3125 286.113281 94.351562 291.25 92.511719 C 296.386719 90.675781 301.566406 88.964844 306.789062 87.378906 C 312.011719 85.796875 317.269531 84.339844 322.558594 83.015625 C 327.851562 81.6875 333.175781 80.492188 338.527344 79.429688 C 343.878906 78.363281 349.253906 77.433594 354.648438 76.632812 C 360.046875 75.832031 365.460938 75.164062 370.890625 74.628906 C 376.320312 74.09375 381.761719 73.691406 387.210938 73.425781 C 392.660156 73.15625 398.113281 73.023438 403.570312 73.023438 C 409.027344 73.023438 414.480469 73.15625 419.929688 73.425781 C 425.378906 73.691406 430.816406 74.09375 436.25 74.628906 C 441.679688 75.164062 447.09375 75.832031 452.488281 76.632812 C 457.886719 77.433594 463.261719 78.363281 468.613281 79.429688 C 473.964844 80.492188 479.285156 81.6875 484.578125 83.015625 C 489.871094 84.339844 495.128906 85.796875 500.351562 87.378906 C 505.570312 88.964844 510.75 90.675781 515.886719 92.511719 C 521.027344 94.351562 526.113281 96.3125 531.15625 98.402344 C 536.195312 100.488281 541.183594 102.699219 546.117188 105.03125 C 551.046875 107.367188 555.921875 109.820312 560.734375 112.390625 C 565.542969 114.960938 570.289062 117.652344 574.96875 120.457031 C 579.652344 123.261719 584.257812 126.179688 588.796875 129.210938 C 593.332031 132.242188 597.792969 135.382812 602.175781 138.632812 C 606.558594 141.882812 610.859375 145.238281 615.074219 148.703125 C 619.292969 152.164062 623.421875 155.726562 627.464844 159.390625 C 631.507812 163.054688 635.460938 166.816406 639.316406 170.671875 C 643.175781 174.53125 646.9375 178.480469 650.601562 182.523438 C 654.265625 186.566406 657.828125 190.699219 661.289062 194.917969 C 664.75 199.132812 668.105469 203.433594 671.359375 207.816406 C 674.609375 212.199219 677.75 216.660156 680.78125 221.195312 C 683.8125 225.730469 686.730469 230.339844 689.535156 235.019531 C 692.339844 239.699219 695.027344 244.445312 697.601562 249.257812 C 700.171875 254.070312 702.625 258.941406 704.957031 263.875 C 707.292969 268.808594 709.5 273.792969 711.589844 278.835938 C 713.675781 283.875 715.640625 288.964844 717.480469 294.101562 C 719.316406 299.242188 721.027344 304.417969 722.613281 309.640625 C 724.195312 314.863281 725.652344 320.121094 726.976562 325.414062 C 728.300781 330.707031 729.496094 336.027344 730.5625 341.378906 C 731.625 346.730469 732.558594 352.105469 733.359375 357.503906 C 734.160156 362.898438 734.828125 368.3125 735.363281 373.742188 C 735.898438 379.171875 736.296875 384.613281 736.566406 390.0625 C 736.835938 395.511719 736.96875 400.964844 736.96875 406.421875 C 736.964844 411.878906 736.828125 417.328125 736.558594 422.777344 C 736.289062 428.226562 735.886719 433.667969 735.347656 439.09375 C 734.8125 444.523438 734.140625 449.9375 733.339844 455.332031 C 732.535156 460.730469 731.601562 466.101562 730.535156 471.453125 C 729.46875 476.804688 728.273438 482.125 726.945312 487.417969 C 725.617188 492.707031 724.160156 497.964844 722.574219 503.183594 C 720.992188 508.40625 719.277344 513.582031 717.4375 518.71875 C 715.601562 523.855469 713.636719 528.941406 711.546875 533.984375 C 709.457031 539.023438 707.246094 544.007812 704.914062 548.941406 C 702.578125 553.871094 700.125 558.742188 697.554688 563.554688 C 694.980469 568.363281 692.292969 573.109375 689.488281 577.789062 C 686.679688 582.46875 683.761719 587.074219 680.730469 591.609375 C 677.699219 596.144531 674.558594 600.605469 671.308594 604.984375 C 668.058594 609.367188 664.703125 613.667969 661.242188 617.882812 C 657.78125 622.101562 654.21875 626.230469 650.554688 630.273438 C 646.890625 634.316406 643.128906 638.265625 639.269531 642.125 C 635.414062 645.980469 631.464844 649.742188 627.421875 653.40625 C 623.378906 657.070312 619.25 660.632812 615.03125 664.09375 C 610.816406 667.554688 606.515625 670.910156 602.132812 674.160156 C 597.753906 677.410156 593.292969 680.550781 588.757812 683.582031 C 584.222656 686.613281 579.613281 689.535156 574.9375 692.339844 C 570.257812 695.144531 565.511719 697.832031 560.699219 700.40625 C 555.890625 702.976562 551.019531 705.429688 546.085938 707.765625 C 541.15625 710.097656 536.171875 712.308594 531.128906 714.398438 C 526.089844 716.488281 521.003906 718.453125 515.867188 720.292969 C 510.730469 722.128906 505.550781 723.84375 500.332031 725.429688 C 495.113281 727.011719 489.855469 728.46875 484.5625 729.796875 C 479.273438 731.125 473.953125 732.320312 468.601562 733.386719 C 463.25 734.453125 457.878906 735.386719 452.480469 736.191406 C 447.085938 736.992188 441.671875 737.664062 436.242188 738.199219 C 430.8125 738.738281 425.375 739.140625 419.925781 739.410156 C 414.476562 739.679688 409.023438 739.816406 403.570312 739.820312 Z M 403.570312 739.820312 " fill-opacity="1" fill-rule="evenodd"/></g><path fill="#ff5757" d="M 491.132812 417.089844 C 484.628906 417.011719 478.40625 418.292969 472.464844 420.929688 C 466.871094 423.488281 462.070312 427.097656 458.058594 431.761719 C 453.90625 436.644531 450.820312 442.128906 448.804688 448.214844 C 446.554688 455.042969 445.46875 462.046875 445.550781 469.234375 C 445.492188 477.332031 446.609375 485.261719 448.910156 493.023438 C 450.960938 500.019531 454.128906 506.464844 458.40625 512.363281 C 462.324219 517.757812 467.167969 522.125 472.941406 525.457031 C 475.789062 527.066406 478.796875 528.277344 481.960938 529.089844 C 485.128906 529.90625 488.34375 530.292969 491.613281 530.257812 C 494.847656 530.3125 498.042969 529.980469 501.199219 529.269531 C 504.355469 528.554688 507.382812 527.480469 510.285156 526.046875 C 515.890625 523.191406 520.613281 519.273438 524.445312 514.28125 C 528.617188 508.765625 531.621094 502.675781 533.460938 496.011719 C 535.621094 488.355469 536.660156 480.550781 536.582031 472.59375 C 536.546875 435.699219 521.398438 417.195312 491.132812 417.089844 Z M 491.132812 417.089844 " fill-opacity="1" fill-rule="evenodd"/><path fill="#ff5757" d="M 403.570312 99.695312 C 398.550781 99.695312 393.53125 99.820312 388.519531 100.066406 C 383.503906 100.3125 378.5 100.679688 373.503906 101.171875 C 368.507812 101.664062 363.527344 102.277344 358.5625 103.015625 C 353.597656 103.75 348.652344 104.609375 343.730469 105.589844 C 338.808594 106.566406 333.910156 107.667969 329.042969 108.886719 C 324.171875 110.105469 319.335938 111.445312 314.53125 112.902344 C 309.726562 114.359375 304.964844 115.933594 300.238281 117.625 C 295.511719 119.316406 290.828125 121.121094 286.191406 123.042969 C 281.554688 124.964844 276.964844 126.996094 272.425781 129.144531 C 267.890625 131.289062 263.40625 133.546875 258.980469 135.914062 C 254.550781 138.28125 250.1875 140.753906 245.878906 143.332031 C 241.574219 145.914062 237.335938 148.597656 233.160156 151.386719 C 228.988281 154.175781 224.886719 157.066406 220.851562 160.058594 C 216.820312 163.046875 212.863281 166.132812 208.984375 169.320312 C 205.105469 172.503906 201.304688 175.78125 197.585938 179.152344 C 193.867188 182.523438 190.230469 185.984375 186.679688 189.535156 C 183.132812 193.082031 179.671875 196.71875 176.300781 200.4375 C 172.929688 204.15625 169.652344 207.957031 166.46875 211.835938 C 163.28125 215.71875 160.195312 219.671875 157.203125 223.703125 C 154.214844 227.738281 151.324219 231.839844 148.535156 236.011719 C 145.746094 240.1875 143.0625 244.425781 140.480469 248.734375 C 137.902344 253.039062 135.425781 257.40625 133.0625 261.832031 C 130.695312 266.257812 128.4375 270.742188 126.292969 275.277344 C 124.144531 279.816406 122.113281 284.40625 120.191406 289.042969 C 118.269531 293.679688 116.464844 298.363281 114.773438 303.089844 C 113.082031 307.816406 111.507812 312.578125 110.050781 317.382812 C 108.59375 322.1875 107.253906 327.023438 106.035156 331.894531 C 104.816406 336.761719 103.714844 341.660156 102.738281 346.582031 C 101.757812 351.503906 100.898438 356.449219 100.164062 361.414062 C 99.425781 366.382812 98.8125 371.363281 98.320312 376.355469 C 97.828125 381.351562 97.457031 386.359375 97.210938 391.371094 C 96.964844 396.386719 96.84375 401.402344 96.84375 406.421875 C 96.84375 411.441406 96.964844 416.457031 97.210938 421.472656 C 97.457031 426.484375 97.828125 431.492188 98.320312 436.484375 C 98.8125 441.480469 99.425781 446.460938 100.164062 451.429688 C 100.898438 456.394531 101.757812 461.335938 102.738281 466.261719 C 103.714844 471.183594 104.816406 476.082031 106.035156 480.949219 C 107.253906 485.820312 108.59375 490.65625 110.050781 495.460938 C 111.507812 500.261719 113.082031 505.027344 114.773438 509.753906 C 116.464844 514.480469 118.269531 519.164062 120.191406 523.800781 C 122.113281 528.4375 124.144531 533.027344 126.292969 537.5625 C 128.4375 542.101562 130.695312 546.585938 133.0625 551.011719 C 135.425781 555.4375 137.902344 559.804688 140.480469 564.109375 C 143.0625 568.417969 145.746094 572.65625 148.535156 576.828125 C 151.324219 581.003906 154.214844 585.105469 157.203125 589.136719 C 160.195312 593.171875 163.28125 597.125 166.46875 601.007812 C 169.652344 604.886719 172.929688 608.6875 176.300781 612.40625 C 179.671875 616.125 183.132812 619.761719 186.679688 623.308594 C 190.230469 626.859375 193.867188 630.320312 197.585938 633.691406 C 201.304688 637.0625 205.105469 640.339844 208.984375 643.523438 C 212.863281 646.710938 216.820312 649.796875 220.851562 652.785156 C 224.886719 655.777344 228.988281 658.667969 233.160156 661.457031 C 237.335938 664.246094 241.574219 666.929688 245.878906 669.511719 C 250.1875 672.089844 254.550781 674.5625 258.980469 676.929688 C 263.40625 679.296875 267.890625 681.554688 272.425781 683.699219 C 276.964844 685.84375 281.554688 687.878906 286.191406 689.800781 C 290.828125 691.722656 295.511719 693.527344 300.238281 695.21875 C 304.964844 696.910156 309.726562 698.484375 314.53125 699.941406 C 319.335938 701.398438 324.171875 702.738281 329.042969 703.957031 C 333.910156 705.175781 338.808594 706.273438 343.730469 707.253906 C 348.652344 708.234375 353.597656 709.09375 358.5625 709.828125 C 363.527344 710.566406 368.507812 711.179688 373.503906 711.671875 C 378.5 712.164062 383.503906 712.53125 388.519531 712.777344 C 393.53125 713.023438 398.550781 713.148438 403.570312 713.148438 C 408.589844 713.148438 413.605469 713.023438 418.621094 712.777344 C 423.632812 712.53125 428.636719 712.164062 433.632812 711.671875 C 438.628906 711.179688 443.609375 710.566406 448.574219 709.828125 C 453.542969 709.09375 458.484375 708.234375 463.410156 707.253906 C 468.332031 706.273438 473.230469 705.175781 478.097656 703.957031 C 482.96875 702.738281 487.804688 701.398438 492.609375 699.941406 C 497.410156 698.484375 502.175781 696.910156 506.902344 695.21875 C 511.628906 693.527344 516.3125 691.722656 520.949219 689.800781 C 525.585938 687.878906 530.175781 685.84375 534.710938 683.699219 C 539.25 681.554688 543.734375 679.296875 548.160156 676.929688 C 552.585938 674.5625 556.953125 672.089844 561.257812 669.511719 C 565.5625 666.929688 569.804688 664.246094 573.976562 661.457031 C 578.152344 658.667969 582.253906 655.777344 586.285156 652.785156 C 590.320312 649.796875 594.273438 646.710938 598.15625 643.523438 C 602.035156 640.339844 605.835938 637.0625 609.554688 633.691406 C 613.273438 630.320312 616.910156 626.859375 620.457031 623.308594 C 624.007812 619.761719 627.46875 616.125 630.839844 612.40625 C 634.210938 608.6875 637.488281 604.886719 640.671875 601.007812 C 643.855469 597.125 646.945312 593.171875 649.933594 589.136719 C 652.925781 585.105469 655.816406 581.003906 658.601562 576.828125 C 661.390625 572.65625 664.078125 568.417969 666.65625 564.109375 C 669.238281 559.804688 671.710938 555.4375 674.078125 551.011719 C 676.445312 546.585938 678.699219 542.101562 680.847656 537.5625 C 682.992188 533.027344 685.027344 528.4375 686.949219 523.800781 C 688.867188 519.164062 690.675781 514.480469 692.367188 509.753906 C 694.058594 505.027344 695.632812 500.261719 697.089844 495.460938 C 698.546875 490.65625 699.882812 485.820312 701.105469 480.949219 C 702.324219 476.082031 703.421875 471.183594 704.402344 466.261719 C 705.382812 461.335938 706.238281 456.394531 706.976562 451.429688 C 707.714844 446.460938 708.328125 441.480469 708.820312 436.484375 C 709.3125 431.492188 709.679688 426.484375 709.925781 421.472656 C 710.171875 416.457031 710.296875 411.441406 710.296875 406.421875 C 710.292969 401.402344 710.167969 396.386719 709.921875 391.375 C 709.671875 386.359375 709.300781 381.355469 708.808594 376.363281 C 708.3125 371.367188 707.695312 366.386719 706.960938 361.421875 C 706.222656 356.457031 705.359375 351.515625 704.378906 346.589844 C 703.398438 341.667969 702.296875 336.773438 701.078125 331.90625 C 699.855469 327.035156 698.515625 322.203125 697.058594 317.398438 C 695.601562 312.597656 694.023438 307.832031 692.332031 303.105469 C 690.640625 298.382812 688.835938 293.699219 686.914062 289.0625 C 684.992188 284.425781 682.957031 279.839844 680.808594 275.304688 C 678.664062 270.765625 676.40625 266.285156 674.039062 261.859375 C 671.671875 257.433594 669.199219 253.066406 666.617188 248.761719 C 664.035156 244.457031 661.351562 240.21875 658.5625 236.046875 C 655.773438 231.871094 652.882812 227.769531 649.894531 223.738281 C 646.902344 219.707031 643.816406 215.753906 640.632812 211.871094 C 637.449219 207.992188 634.167969 204.191406 630.800781 200.472656 C 627.429688 196.753906 623.96875 193.121094 620.417969 189.574219 C 616.871094 186.023438 613.234375 182.5625 609.515625 179.191406 C 605.796875 175.820312 602 172.542969 598.117188 169.359375 C 594.238281 166.175781 590.285156 163.089844 586.253906 160.097656 C 582.222656 157.109375 578.121094 154.21875 573.945312 151.429688 C 569.773438 148.640625 565.535156 145.953125 561.230469 143.375 C 556.925781 140.792969 552.558594 138.320312 548.132812 135.953125 C 543.707031 133.585938 539.226562 131.328125 534.6875 129.183594 C 530.152344 127.035156 525.566406 125 520.929688 123.078125 C 516.292969 121.15625 511.609375 119.351562 506.886719 117.660156 C 502.160156 115.964844 497.394531 114.390625 492.59375 112.933594 C 487.789062 111.472656 482.953125 110.132812 478.085938 108.914062 C 473.21875 107.691406 468.324219 106.589844 463.398438 105.609375 C 458.476562 104.628906 453.535156 103.769531 448.570312 103.03125 C 443.605469 102.292969 438.625 101.679688 433.628906 101.183594 C 428.636719 100.691406 423.632812 100.320312 418.617188 100.070312 C 413.605469 99.824219 408.589844 99.699219 403.570312 99.695312 Z M 336.035156 582.457031 L 260.367188 582.457031 L 260.367188 315.738281 C 255.789062 319.710938 250.863281 323.195312 245.59375 326.191406 C 239.738281 329.546875 233.695312 332.507812 227.457031 335.074219 C 220.945312 337.738281 214.296875 339.988281 207.503906 341.824219 C 200.789062 343.628906 193.980469 344.945312 187.074219 345.769531 L 187.074219 281.757812 C 206.359375 276.171875 224.941406 268.808594 242.816406 259.671875 C 259.445312 251.296875 275.21875 241.535156 290.132812 230.386719 L 336.035156 230.386719 Z M 601.875 515.429688 C 599.0625 522.578125 595.574219 529.375 591.410156 535.828125 C 587.242188 542.277344 582.480469 548.253906 577.125 553.757812 C 571.753906 559.222656 565.898438 564.101562 559.546875 568.390625 C 553.199219 572.675781 546.484375 576.289062 539.410156 579.230469 C 535.441406 580.816406 531.40625 582.203125 527.300781 583.394531 C 523.195312 584.582031 519.042969 585.5625 514.839844 586.335938 C 510.636719 587.113281 506.40625 587.679688 502.144531 588.035156 C 497.886719 588.390625 493.621094 588.535156 489.347656 588.46875 C 485.074219 588.398438 480.816406 588.121094 476.570312 587.632812 C 472.324219 587.140625 468.113281 586.441406 463.9375 585.535156 C 459.761719 584.628906 455.640625 583.515625 451.574219 582.199219 C 447.507812 580.882812 443.519531 579.367188 439.601562 577.65625 C 431.992188 574.070312 424.914062 569.628906 418.371094 564.339844 C 411.828125 559.050781 406.003906 553.058594 400.902344 546.367188 C 395.285156 538.835938 390.433594 530.832031 386.351562 522.367188 C 382.269531 513.902344 379.03125 505.125 376.632812 496.039062 C 370.726562 473.921875 367.925781 451.421875 368.230469 428.53125 C 368.066406 414.902344 368.902344 401.335938 370.734375 387.828125 C 372.566406 374.324219 375.375 361.023438 379.164062 347.929688 C 382.371094 336.722656 386.601562 325.917969 391.855469 315.511719 C 397.105469 305.109375 403.289062 295.289062 410.398438 286.050781 C 416.953125 277.664062 424.371094 270.121094 432.648438 263.425781 C 440.925781 256.730469 449.847656 251.050781 459.421875 246.390625 C 469.546875 241.585938 480.089844 237.996094 491.042969 235.621094 C 501.996094 233.246094 513.078125 232.152344 524.285156 232.335938 C 534.824219 231.886719 545.304688 232.449219 555.730469 234.023438 C 566.160156 235.597656 576.339844 238.15625 586.273438 241.695312 L 586.273438 305.070312 C 581.9375 302.597656 577.457031 300.425781 572.835938 298.542969 C 568.214844 296.664062 563.492188 295.09375 558.664062 293.835938 C 553.835938 292.578125 548.949219 291.640625 543.996094 291.023438 C 539.046875 290.410156 534.078125 290.121094 529.085938 290.160156 C 523.074219 290.078125 517.128906 290.667969 511.25 291.929688 C 505.371094 293.191406 499.707031 295.089844 494.253906 297.628906 C 489.078125 300.109375 484.238281 303.132812 479.734375 306.695312 C 475.234375 310.261719 471.183594 314.28125 467.582031 318.75 C 459.675781 328.675781 453.824219 339.691406 450.03125 351.796875 C 445.589844 365.832031 443.304688 380.207031 443.175781 394.925781 L 444.617188 394.925781 C 446.675781 392.128906 448.902344 389.46875 451.296875 386.949219 C 453.6875 384.429688 456.226562 382.066406 458.910156 379.863281 C 461.597656 377.660156 464.410156 375.632812 467.347656 373.78125 C 470.289062 371.925781 473.332031 370.265625 476.476562 368.789062 C 479.625 367.316406 482.847656 366.046875 486.152344 364.972656 C 489.457031 363.902344 492.816406 363.042969 496.230469 362.390625 C 499.640625 361.738281 503.082031 361.296875 506.550781 361.074219 C 510.015625 360.851562 513.484375 360.84375 516.953125 361.054688 C 523.597656 360.957031 530.175781 361.554688 536.695312 362.851562 C 543.210938 364.144531 549.523438 366.105469 555.625 368.734375 C 561.246094 371.234375 566.527344 374.3125 571.46875 377.972656 C 576.414062 381.628906 580.902344 385.777344 584.9375 390.417969 C 589.171875 395.371094 592.886719 400.6875 596.078125 406.371094 C 599.269531 412.054688 601.875 417.992188 603.902344 424.183594 C 608.570312 438.382812 610.808594 452.957031 610.625 467.902344 C 610.710938 476.039062 610.019531 484.109375 608.550781 492.113281 C 607.078125 500.121094 604.851562 507.910156 601.875 515.484375 Z M 601.875 515.429688 " fill-opacity="1" fill-rule="evenodd"/></svg>