<svg xmlns="http://www.w3.org/2000/svg" xmlns:xlink="http://www.w3.org/1999/xlink" width="1080" zoomAndPan="magnify" viewBox="0 0 810 809.999993" height="1080" preserveAspectRatio="xMidYMid meet" version="1.0"><defs><clipPath id="37e9b1bf54"><path d="M 294 14.0625 L 489 14.0625 L 489 175 L 294 175 Z M 294 14.0625 " clip-rule="nonzero"/></clipPath><clipPath id="74d645b588"><path d="M 590.613281 695 L 757.578125 695 L 757.578125 794.972656 L 590.613281 794.972656 Z M 590.613281 695 " clip-rule="nonzero"/></clipPath></defs><g clip-path="url(#37e9b1bf54)"><path fill="#f05c2b" d="M 294.71875 70.273438 L 337.617188 14.0625 C 337.617188 14.0625 425.039062 74.597656 488.464844 114.429688 C 466.820312 152.714844 451.113281 174.679688 451.113281 174.679688 L 294.71875 70.273438 " fill-opacity="1" fill-rule="nonzero"/></g><path fill="#8530f0" d="M 309.277344 72.667969 L 311.828125 74.304688 L 346.460938 20.214844 L 343.910156 18.582031 L 309.277344 72.667969 " fill-opacity="1" fill-rule="nonzero"/><path fill="#8530f0" d="M 322.746094 81.632812 L 325.300781 83.269531 L 359.714844 29.527344 L 357.164062 27.890625 L 322.746094 81.632812 " fill-opacity="1" fill-rule="nonzero"/><path fill="#8530f0" d="M 334.828125 98.382812 L 373 38.78125 L 370.445312 37.148438 L 370.402344 37.222656 L 336.039062 90.875 L 334.828125 98.382812 " fill-opacity="1" fill-rule="nonzero"/><path fill="#8530f0" d="M 349.652344 99.625 L 352.207031 101.257812 L 386.316406 47.988281 L 383.761719 46.351562 L 349.652344 99.625 " fill-opacity="1" fill-rule="nonzero"/><path fill="#8530f0" d="M 363.082031 108.648438 L 365.632812 110.28125 L 399.65625 57.140625 L 397.105469 55.507812 L 363.082031 108.648438 " fill-opacity="1" fill-rule="nonzero"/><path fill="#8530f0" d="M 376.492188 117.710938 L 379.046875 119.347656 L 413.046875 66.242188 L 410.492188 64.605469 L 376.492188 117.710938 " fill-opacity="1" fill-rule="nonzero"/><path fill="#8530f0" d="M 389.875 126.808594 L 392.429688 128.441406 L 426.46875 75.285156 L 423.914062 73.65625 L 389.875 126.808594 " fill-opacity="1" fill-rule="nonzero"/><path fill="#8530f0" d="M 403.238281 135.945312 L 405.789062 137.582031 L 439.933594 84.265625 L 437.378906 82.628906 L 403.238281 135.945312 " fill-opacity="1" fill-rule="nonzero"/><path fill="#8530f0" d="M 416.546875 145.160156 L 419.101562 146.792969 L 453.441406 93.167969 L 450.890625 91.535156 L 416.546875 145.160156 " fill-opacity="1" fill-rule="nonzero"/><path fill="#8530f0" d="M 429.796875 154.476562 L 432.347656 156.109375 L 467.007812 101.988281 L 464.457031 100.351562 L 429.796875 154.476562 " fill-opacity="1" fill-rule="nonzero"/><path fill="#8530f0" d="M 442.894531 164.03125 L 445.445312 165.664062 L 480.640625 110.699219 L 478.089844 109.0625 L 442.894531 164.03125 " fill-opacity="1" fill-rule="nonzero"/><path fill="#6eeaca" d="M 348.21875 597.460938 C 352.652344 610.71875 352.246094 626.6875 347.503906 642.039062 C 336.105469 678.980469 299.597656 712.378906 245.078125 695.902344 C 204.136719 683.53125 181.785156 665.0625 168.765625 642.503906 C 162.304688 631.300781 158.132812 619.085938 155.140625 606.113281 C 152.789062 595.949219 151.160156 585.335938 149.699219 574.359375 C 149.472656 572.636719 149.230469 570.871094 148.980469 569.050781 C 148.53125 565.765625 148.039062 562.320312 147.523438 558.726562 C 145.335938 543.707031 142.523438 526.167969 139.039062 507.417969 C 138.28125 503.359375 137.5 499.238281 136.671875 495.074219 C 134.617188 484.625 132.359375 473.902344 129.898438 463.113281 C 126.699219 449.144531 123.148438 435.050781 119.230469 421.308594 C 114.628906 405.144531 109.515625 389.457031 103.855469 374.960938 C 101.550781 369.050781 99.160156 363.332031 96.679688 357.871094 C 96.679688 357.871094 96.664062 357.851562 96.636719 357.804688 C 95.898438 356.167969 95.148438 354.558594 94.390625 352.96875 C 69.964844 301.949219 103.082031 272.832031 119.589844 264.980469 C 128 260.980469 129.085938 259.324219 137.875 254.910156 C 137.890625 254.902344 137.902344 254.898438 137.917969 254.894531 C 148.125 249.765625 162.808594 238.257812 179.714844 220.722656 C 183.992188 216.285156 188.414062 211.464844 192.9375 206.261719 L 192.9375 206.253906 C 198.8125 199.496094 204.871094 192.085938 211.023438 184.054688 C 215.367188 178.382812 219.757812 172.398438 224.171875 166.109375 C 226.636719 162.582031 229.117188 158.964844 231.59375 155.25 C 243.371094 137.574219 251.253906 125.191406 254.34375 121.097656 C 256.976562 117.609375 259.496094 114.300781 261.90625 111.164062 C 277.300781 91.121094 288.152344 78.121094 293.964844 71.371094 C 294.273438 71.015625 294.5625 70.679688 294.851562 70.363281 L 294.851562 70.355469 C 296.679688 68.226562 297.902344 66.863281 298.496094 66.207031 C 298.765625 65.902344 298.902344 65.753906 298.902344 65.753906 C 298.902344 65.753906 303.28125 68.648438 310.554688 73.480469 C 314.335938 75.988281 318.894531 79.019531 324.023438 82.445312 C 328.175781 85.207031 332.695312 88.226562 337.480469 91.429688 C 341.773438 94.296875 346.285156 97.320312 350.929688 100.4375 C 359.574219 106.238281 368.691406 112.375 377.769531 118.523438 L 377.765625 118.53125 C 382.261719 121.566406 386.742188 124.613281 391.152344 127.621094 C 395.703125 130.71875 400.179688 133.785156 404.507812 136.761719 C 409.140625 139.945312 413.609375 143.03125 417.824219 145.972656 C 422.59375 149.292969 427.054688 152.425781 431.070312 155.289062 C 436.234375 158.96875 440.6875 162.210938 444.167969 164.84375 C 448.84375 168.382812 451.777344 170.828125 452.351562 171.796875 C 452.464844 171.984375 452.519531 172.246094 452.507812 172.585938 C 452.507812 172.585938 452.507812 172.585938 452.507812 172.59375 C 452.335938 181.8125 410.019531 245.839844 373.109375 298.21875 C 373.109375 298.222656 373.109375 298.222656 373.109375 298.222656 C 363.890625 311.3125 355 323.679688 347.199219 334.273438 C 340.644531 343.167969 334.851562 350.824219 330.261719 356.625 C 320.304688 369.191406 316.660156 392.199219 316.84375 419.398438 C 316.929688 433.675781 318.074219 449.097656 319.910156 464.785156 C 322.386719 485.898438 326.113281 507.476562 330.214844 527.3125 C 331.285156 532.535156 332.394531 537.628906 333.507812 542.5625 C 335.765625 552.574219 338.066406 561.929688 340.273438 570.289062 C 342.003906 576.867188 343.691406 582.832031 345.238281 588.015625 C 346.292969 591.542969 347.289062 594.699219 348.21875 597.460938 " fill-opacity="1" fill-rule="nonzero"/><path fill="#f05c2b" d="M 137.914062 254.890625 C 137.914062 254.890625 210.394531 326.308594 201.074219 340.394531 C 192.433594 353.457031 96.679688 357.871094 96.679688 357.871094 C 96.679688 357.871094 50.230469 290.363281 137.914062 254.890625 " fill-opacity="1" fill-rule="nonzero"/><path fill="#f05c2b" d="M 168.765625 642.503906 C 168.765625 642.503906 211.277344 606.714844 268.316406 608.132812 C 312.785156 609.242188 347.503906 642.039062 347.503906 642.039062 C 347.503906 642.039062 342.1875 681.261719 297.738281 697.726562 C 263.925781 710.507812 227.398438 692.144531 227.398438 692.144531 C 227.398438 692.144531 180.613281 671.800781 168.765625 642.503906 " fill-opacity="1" fill-rule="nonzero"/><path fill="#8530f0" d="M 393.0625 180.789062 C 395 148.59375 355.074219 157.175781 355.074219 157.175781 C 355.074219 157.175781 346.316406 117.101562 317.386719 133.101562 C 288.257812 149.210938 321.734375 206.996094 321.734375 206.996094 C 321.734375 206.996094 391.253906 210.863281 393.0625 180.789062 " fill-opacity="1" fill-rule="nonzero"/><path fill="#8530f0" d="M 194.808594 259.96875 C 194.808594 259.96875 183.421875 240.308594 179.714844 220.722656 C 183.992188 216.285156 188.414062 211.464844 192.9375 206.261719 L 192.9375 206.253906 C 198.8125 199.496094 204.871094 192.085938 211.023438 184.054688 C 223.792969 190.152344 228.160156 210.148438 228.160156 210.148438 C 228.160156 210.148438 268.082031 201.558594 266.144531 233.765625 C 264.335938 263.839844 194.808594 259.96875 194.808594 259.96875 " fill-opacity="1" fill-rule="nonzero"/><path fill="#8530f0" d="M 373.109375 298.21875 C 373.117188 298.21875 373.109375 298.222656 373.109375 298.222656 C 363.890625 311.3125 355 323.679688 347.199219 334.273438 C 327.261719 338.972656 304.082031 337.683594 304.082031 337.683594 C 304.082031 337.683594 270.613281 279.898438 299.742188 263.789062 C 328.667969 247.785156 337.429688 287.867188 337.429688 287.867188 C 337.429688 287.867188 364.789062 281.980469 373.109375 298.21875 " fill-opacity="1" fill-rule="nonzero"/><path fill="#8530f0" d="M 279.289062 424.464844 C 281.226562 392.265625 241.300781 400.851562 241.300781 400.851562 C 241.300781 400.851562 232.542969 360.777344 203.613281 376.777344 C 174.484375 392.886719 207.953125 450.671875 207.953125 450.671875 C 207.953125 450.671875 277.480469 454.539062 279.289062 424.464844 " fill-opacity="1" fill-rule="nonzero"/><path fill="#8530f0" d="M 148.980469 569.050781 C 148.53125 565.765625 148.039062 562.320312 147.523438 558.726562 C 145.335938 543.707031 142.523438 526.167969 139.039062 507.417969 C 138.28125 503.359375 137.5 499.238281 136.671875 495.074219 C 136.714844 495.046875 136.765625 495.023438 136.804688 494.996094 C 165.730469 479 174.492188 519.074219 174.492188 519.074219 C 174.492188 519.074219 214.417969 510.488281 212.480469 542.683594 C 211.046875 566.484375 167.207031 569.027344 148.980469 569.050781 " fill-opacity="1" fill-rule="nonzero"/><path fill="#8530f0" d="M 340.273438 570.289062 C 319.335938 580.101562 283.917969 578.128906 283.917969 578.128906 C 283.917969 578.128906 250.445312 520.347656 279.574219 504.238281 C 308.503906 488.242188 317.265625 528.3125 317.265625 528.3125 C 317.265625 528.3125 323.105469 527.058594 330.214844 527.3125 C 331.285156 532.535156 332.394531 537.628906 333.507812 542.5625 C 335.765625 552.574219 338.066406 561.929688 340.273438 570.289062 " fill-opacity="1" fill-rule="nonzero"/><path fill="#f05c2b" d="M 493.09375 193.039062 L 511.800781 124.855469 C 511.800781 124.855469 615.539062 148.214844 689.273438 161.382812 C 683.554688 204.984375 677.222656 231.234375 677.222656 231.234375 L 493.09375 193.039062 " fill-opacity="1" fill-rule="nonzero"/><path fill="#8530f0" d="M 507.488281 189.804688 L 510.46875 190.367188 L 522.304688 127.242188 L 519.328125 126.683594 L 507.488281 189.804688 " fill-opacity="1" fill-rule="nonzero"/><path fill="#8530f0" d="M 523.339844 193.070312 L 526.320312 193.628906 L 538.082031 130.90625 L 535.105469 130.351562 L 523.339844 193.070312 " fill-opacity="1" fill-rule="nonzero"/><path fill="#8530f0" d="M 540.816406 204.070312 L 553.871094 134.515625 L 550.886719 133.957031 L 550.875 134.039062 L 539.125 196.660156 L 540.816406 204.070312 " fill-opacity="1" fill-rule="nonzero"/><path fill="#8530f0" d="M 555.023438 199.664062 L 558.007812 200.226562 L 569.660156 138.058594 L 566.683594 137.5 L 555.023438 199.664062 " fill-opacity="1" fill-rule="nonzero"/><path fill="#8530f0" d="M 570.859375 203.003906 L 573.839844 203.5625 L 585.464844 141.539062 L 582.484375 140.984375 L 570.859375 203.003906 " fill-opacity="1" fill-rule="nonzero"/><path fill="#8530f0" d="M 586.6875 206.382812 L 589.667969 206.941406 L 601.289062 144.960938 L 598.308594 144.402344 L 586.6875 206.382812 " fill-opacity="1" fill-rule="nonzero"/><path fill="#8530f0" d="M 602.503906 209.800781 L 605.484375 210.359375 L 617.121094 148.324219 L 614.140625 147.761719 L 602.503906 209.800781 " fill-opacity="1" fill-rule="nonzero"/><path fill="#8530f0" d="M 618.316406 213.265625 L 621.296875 213.828125 L 632.96875 151.601562 L 629.988281 151.042969 L 618.316406 213.265625 " fill-opacity="1" fill-rule="nonzero"/><path fill="#8530f0" d="M 634.113281 216.816406 L 637.09375 217.378906 L 648.832031 154.792969 L 645.851562 154.234375 L 634.113281 216.816406 " fill-opacity="1" fill-rule="nonzero"/><path fill="#8530f0" d="M 649.886719 220.492188 L 652.863281 221.050781 L 664.71875 157.886719 L 661.738281 157.328125 L 649.886719 220.492188 " fill-opacity="1" fill-rule="nonzero"/><path fill="#8530f0" d="M 665.609375 224.441406 L 668.589844 225 L 680.617188 160.851562 L 677.640625 160.296875 L 665.609375 224.441406 " fill-opacity="1" fill-rule="nonzero"/><path fill="#6eeaca" d="M 740.277344 661.765625 C 749.359375 672.394531 754.960938 687.351562 756.320312 703.359375 C 759.597656 741.878906 738.269531 786.523438 681.546875 791.679688 C 638.957031 795.550781 611.308594 786.804688 590.78125 770.769531 C 580.59375 762.800781 572.148438 753.042969 564.511719 742.136719 C 558.523438 733.59375 553.035156 724.363281 547.566406 714.734375 C 546.710938 713.226562 545.828125 711.675781 544.910156 710.082031 C 543.265625 707.207031 541.515625 704.195312 539.691406 701.054688 C 532.035156 687.953125 522.851562 672.742188 512.589844 656.664062 C 510.371094 653.1875 508.101562 649.660156 505.777344 646.105469 C 499.957031 637.191406 493.84375 628.097656 487.515625 619.015625 C 479.3125 607.261719 470.742188 595.527344 461.957031 584.25 C 451.632812 570.996094 441.011719 558.363281 430.335938 547.046875 C 425.980469 542.429688 421.621094 538.023438 417.273438 533.890625 C 417.273438 533.890625 417.253906 533.875 417.210938 533.84375 C 415.914062 532.605469 414.617188 531.390625 413.3125 530.199219 C 371.550781 492.054688 391.339844 452.648438 403.703125 439.183594 C 410 432.324219 410.386719 430.378906 416.882812 422.996094 C 416.890625 422.980469 416.902344 422.972656 416.910156 422.960938 C 424.457031 414.386719 433.753906 398.210938 442.863281 375.621094 C 445.160156 369.902344 447.453125 363.777344 449.699219 357.257812 L 449.695312 357.25 C 452.609375 348.785156 455.449219 339.644531 458.144531 329.894531 C 460.046875 323.011719 461.871094 315.816406 463.605469 308.328125 C 464.566406 304.132812 465.515625 299.851562 466.417969 295.480469 C 470.714844 274.679688 473.378906 260.246094 474.707031 255.292969 C 475.84375 251.070312 476.941406 247.0625 478 243.246094 C 484.761719 218.898438 489.945312 202.78125 492.808594 194.339844 C 492.957031 193.894531 493.101562 193.480469 493.25 193.074219 L 493.246094 193.066406 C 494.148438 190.410156 494.769531 188.6875 495.070312 187.859375 C 495.210938 187.472656 495.28125 187.28125 495.28125 187.28125 C 495.28125 187.28125 500.421875 188.328125 508.980469 190.078125 C 513.421875 190.988281 518.789062 192.09375 524.824219 193.347656 C 529.707031 194.351562 535.03125 195.457031 540.671875 196.632812 C 545.726562 197.683594 551.039062 198.792969 556.515625 199.945312 C 566.703125 202.082031 577.457031 204.355469 588.175781 206.65625 L 588.175781 206.664062 C 593.480469 207.792969 598.777344 208.9375 603.992188 210.070312 C 609.375 211.238281 614.671875 212.410156 619.800781 213.546875 C 625.292969 214.761719 630.589844 215.949219 635.601562 217.09375 C 641.265625 218.386719 646.574219 219.621094 651.375 220.765625 C 657.539062 222.242188 662.882812 223.582031 667.097656 224.71875 C 672.757812 226.25 676.390625 227.417969 677.289062 228.097656 C 677.464844 228.226562 677.613281 228.453125 677.730469 228.773438 C 677.730469 228.773438 677.730469 228.773438 677.734375 228.78125 C 681.03125 237.386719 665.796875 312.605469 651.203125 375 C 651.203125 375.003906 651.203125 375.003906 651.203125 375.003906 C 647.5625 390.597656 643.957031 405.390625 640.691406 418.136719 C 637.953125 428.839844 635.449219 438.105469 633.367188 445.203125 C 628.84375 460.589844 634.09375 483.285156 644.453125 508.433594 C 649.886719 521.640625 656.726562 535.507812 664.308594 549.363281 C 674.519531 568.011719 686.054688 586.621094 697.292969 603.476562 C 700.246094 607.910156 703.183594 612.222656 706.0625 616.382812 C 711.910156 624.816406 717.546875 632.625 722.726562 639.550781 C 726.796875 644.996094 730.59375 649.898438 733.976562 654.125 C 736.273438 656.996094 738.382812 659.554688 740.277344 661.765625 " fill-opacity="1" fill-rule="nonzero"/><path fill="#f05c2b" d="M 416.910156 422.964844 C 416.910156 422.964844 510.871094 462.015625 507.515625 478.570312 C 504.394531 493.914062 417.273438 533.890625 417.273438 533.890625 C 417.273438 533.890625 348.910156 488.707031 416.910156 422.964844 " fill-opacity="1" fill-rule="nonzero"/><g clip-path="url(#74d645b588)"><path fill="#f05c2b" d="M 590.78125 770.769531 C 590.78125 770.769531 616.785156 721.65625 670.199219 701.597656 C 711.84375 685.960938 756.320312 703.359375 756.320312 703.359375 C 756.320312 703.359375 766.09375 741.714844 731.050781 773.640625 C 704.496094 798.15625 663.746094 794.824219 663.746094 794.824219 C 663.746094 794.824219 612.742188 793.488281 590.78125 770.769531 " fill-opacity="1" fill-rule="nonzero"/></g><path fill="#8530f0" d="M 625.691406 258.652344 C 615.421875 228.074219 581.621094 250.996094 581.621094 250.996094 C 581.621094 250.996094 558.484375 217.125 537.660156 242.796875 C 516.691406 268.648438 569.378906 309.679688 569.378906 309.679688 C 569.378906 309.679688 635.285156 287.214844 625.691406 258.652344 " fill-opacity="1" fill-rule="nonzero"/><path fill="#8530f0" d="M 471.5625 406.351562 C 471.5625 406.351562 453.636719 392.390625 442.863281 375.621094 C 445.160156 369.902344 447.453125 363.777344 449.699219 357.257812 L 449.695312 357.25 C 452.609375 348.785156 455.449219 339.644531 458.144531 329.894531 C 472.265625 330.765625 483.804688 347.664062 483.804688 347.664062 C 483.804688 347.664062 517.601562 324.742188 527.878906 355.324219 C 537.46875 383.886719 471.5625 406.351562 471.5625 406.351562 " fill-opacity="1" fill-rule="nonzero"/><path fill="#8530f0" d="M 651.203125 375 C 651.210938 374.996094 651.203125 375.003906 651.203125 375.003906 C 647.5625 390.597656 643.957031 405.390625 640.691406 418.136719 C 623.96875 429.964844 602 437.453125 602 437.453125 C 602 437.453125 549.308594 396.421875 570.277344 370.574219 C 591.101562 344.894531 614.242188 378.773438 614.242188 378.773438 C 614.242188 378.773438 637.402344 363.0625 651.203125 375 " fill-opacity="1" fill-rule="nonzero"/><path fill="#8530f0" d="M 611.535156 527.203125 C 601.261719 496.621094 567.464844 519.546875 567.464844 519.546875 C 567.464844 519.546875 544.324219 485.671875 523.5 511.34375 C 502.535156 537.199219 555.21875 578.226562 555.21875 578.226562 C 555.21875 578.226562 621.128906 555.761719 611.535156 527.203125 " fill-opacity="1" fill-rule="nonzero"/><path fill="#8530f0" d="M 544.910156 710.082031 C 543.265625 707.207031 541.515625 704.195312 539.691406 701.054688 C 532.035156 687.953125 522.851562 672.742188 512.589844 656.664062 C 510.371094 653.1875 508.101562 649.660156 505.777344 646.105469 C 505.804688 646.066406 505.839844 646.027344 505.867188 645.988281 C 526.691406 620.320312 549.832031 654.1875 549.832031 654.1875 C 549.832031 654.1875 583.628906 631.265625 593.898438 661.839844 C 601.492188 684.445312 561.800781 703.230469 544.910156 710.082031 " fill-opacity="1" fill-rule="nonzero"/><path fill="#8530f0" d="M 722.726562 639.550781 C 706.996094 656.492188 673.417969 667.9375 673.417969 667.9375 C 673.417969 667.9375 620.730469 626.90625 641.695312 601.058594 C 662.523438 575.386719 685.664062 609.253906 685.664062 609.253906 C 685.664062 609.253906 690.609375 605.898438 697.292969 603.476562 C 700.246094 607.910156 703.183594 612.222656 706.0625 616.382812 C 711.910156 624.816406 717.546875 632.625 722.726562 639.550781 " fill-opacity="1" fill-rule="nonzero"/></svg>